<?xml version="1.0" encoding="UTF-8"?>
<svg version="1.1" xmlns="http://www.w3.org/2000/svg" width="453" height="512">
<path d="M0 0 C10.88767979 8.26075857 17.79928143 18.42036988 24.32421875 30.203125 C24.66453125 30.80979004 25.00484375 31.41645508 25.35546875 32.04150391 C38.95388639 56.60231779 45.87340019 84.69340265 51.59765625 111.984375 C52.16033039 115.07476121 52.16033039 115.07476121 53.32421875 117.203125 C56.95117441 116.34230118 60.54208301 115.37708073 64.13671875 114.390625 C65.16087891 114.14892578 66.18503906 113.90722656 67.24023438 113.65820312 C70.29276417 112.78748151 72.68429101 111.97484721 75.32421875 110.203125 C77.11758033 106.64590244 77.67799813 103.10615275 78.32421875 99.203125 C82.62906862 89.1323853 90.25552403 82.96817615 100.26953125 78.9140625 C109.152702 75.84041787 119.01238032 76.54267433 127.61328125 80.16796875 C134.91450974 83.89385339 141.77868694 89.6688699 145.32421875 97.203125 C145.32421875 97.863125 145.32421875 98.523125 145.32421875 99.203125 C146.28199219 99.15671875 147.23976563 99.1103125 148.2265625 99.0625 C163.59765548 98.55123602 179.08237361 100.89628495 191.37109375 110.86328125 C198.46759539 117.5200424 203.05025397 125.37091413 203.6953125 135.2265625 C204.68535383 169.72752284 180.85214382 197.02669092 158.5078125 220.86328125 C150.95282458 228.83575045 143.29086663 236.79878011 134.875 243.87109375 C133.26674573 245.20563779 133.26674573 245.20563779 131.7421875 246.87890625 C130.32421875 248.203125 130.32421875 248.203125 128.32421875 248.203125 C128.32421875 248.863125 128.32421875 249.523125 128.32421875 250.203125 C128.9171875 250.46738281 129.51015625 250.73164063 130.12109375 251.00390625 C132.40450929 252.24682925 133.79848598 253.50714146 135.57421875 255.390625 C137.94940116 257.90102819 140.44011815 260.19013853 143.0546875 262.4453125 C147.34556722 266.17222823 151.38082786 270.11142145 155.38671875 274.140625 C156.05509766 274.80513672 156.72347656 275.46964844 157.41210938 276.15429688 C161.92061114 280.67156152 166.19165105 285.34030437 170.32421875 290.203125 C170.82268311 290.78956787 171.32114746 291.37601074 171.8347168 291.98022461 C189.29628209 312.77790668 205.43153495 336.92127158 203.53417969 365.07519531 C202.51682195 375.38599769 197.01425211 382.53558915 189.32421875 389.203125 C185.49584626 391.81682973 181.66110431 393.58589309 177.32421875 395.203125 C176.26976562 395.61433594 175.2153125 396.02554687 174.12890625 396.44921875 C135.97936947 408.56484087 89.4543527 393.16512881 53.32421875 381.203125 C51.34421875 389.123125 49.36421875 397.043125 47.32421875 405.203125 C48.64421875 405.863125 49.96421875 406.523125 51.32421875 407.203125 C58.68493386 412.70307768 62.104429 420.38277022 63.95703125 429.22265625 C65.16102745 438.99551903 63.28052247 448.37709298 57.64453125 456.52734375 C55.71178582 458.98044372 53.64474681 461.11464975 51.32421875 463.203125 C50.60234375 463.88375 49.88046875 464.564375 49.13671875 465.265625 C42.65439547 469.73122548 37.06150847 471.31267459 29.19921875 471.203125 C24.88877675 471.39418243 23.04546994 471.47708939 19.96875 474.57421875 C18.64113159 476.65441925 17.37661474 478.7759914 16.171875 480.9296875 C10.17173107 491.55996364 -0.20823316 500.36989892 -11.71875 504.5390625 C-22.80267522 507.02818705 -33.82977883 506.05673683 -43.67578125 500.203125 C-77.79603951 477.29025084 -90.07397655 426.30853654 -97.67578125 388.203125 C-98.08972835 385.53434818 -98.40826568 382.89149133 -98.67578125 380.203125 C-99.33658691 380.439104 -99.99739258 380.67508301 -100.67822266 380.91821289 C-118.79291446 387.32432541 -136.83000887 392.37993834 -155.67578125 396.203125 C-156.62614258 396.39664551 -157.57650391 396.59016602 -158.55566406 396.78955078 C-169.71168685 398.95981385 -180.75866074 399.48410674 -192.11328125 399.578125 C-193.96179688 399.59927368 -193.96179688 399.59927368 -195.84765625 399.62084961 C-212.32601228 399.53345768 -228.49512628 396.19899901 -240.6171875 384.46484375 C-247.23335873 377.19584348 -250.25222107 368.28800294 -250.11328125 358.578125 C-250.09648315 357.39536987 -250.09648315 357.39536987 -250.0793457 356.1887207 C-249.47068972 336.73339675 -238.61570834 318.09982043 -226.67578125 303.203125 C-225.86975667 302.13740759 -225.06653823 301.06956403 -224.265625 300 C-211.80870603 283.52954874 -197.00961011 267.95103558 -181.265625 254.5703125 C-179.29920239 252.87928569 -177.47134692 251.07350591 -175.67578125 249.203125 C-179.94075756 244.81819624 -184.33497554 240.66861045 -188.9765625 236.68359375 C-190.2530757 235.57141328 -191.47861139 234.40029486 -192.67578125 233.203125 C-194.24520457 233.37750537 -195.81384814 233.57033645 -197.37109375 233.83203125 C-209.22198943 235.74022632 -219.6275364 235.80791395 -229.98828125 229.078125 C-238.53286492 222.55292043 -243.44137749 214.68914264 -245.67578125 204.203125 C-246.4040181 195.4362737 -245.31014131 187.43406692 -240.61328125 179.890625 C-239.24264842 174.49946918 -241.53429118 171.47657029 -243.96875 166.640625 C-250.2311706 154.02980091 -252.42478892 138.91054097 -248.30078125 125.203125 C-244.0561002 115.6600134 -236.44086799 108.52825649 -226.93359375 104.41796875 C-225.85851562 104.01707031 -224.7834375 103.61617188 -223.67578125 103.203125 C-222.62132812 102.79191406 -221.566875 102.38070312 -220.48046875 101.95703125 C-198.82176817 95.07860876 -172.40080459 98.57568446 -150.67578125 103.203125 C-149.1441333 103.52458496 -149.1441333 103.52458496 -147.58154297 103.85253906 C-112.20280366 111.43961379 -112.20280366 111.43961379 -98.67578125 118.203125 C-98.56041016 117.46884277 -98.44503906 116.73456055 -98.32617188 115.97802734 C-92.23961822 78.23778602 -79.96934004 25.5512096 -47.875 1.06640625 C-45.19895064 -0.69912009 -42.5015852 -2.28489758 -39.67578125 -3.796875 C-38.74765625 -4.33634766 -38.74765625 -4.33634766 -37.80078125 -4.88671875 C-25.83777676 -10.68129905 -10.40352972 -6.98631193 0 0 Z M-34.67578125 20.203125 C-35.49175781 20.80125 -36.30773437 21.399375 -37.1484375 22.015625 C-56.74271418 38.97512259 -65.12038206 72.64921351 -71.61328125 96.640625 C-71.83701416 97.45176758 -72.06074707 98.26291016 -72.29125977 99.09863281 C-73.53339883 103.64921192 -73.53339883 103.64921192 -72.67578125 108.203125 C-70.93554688 107.69652344 -70.93554688 107.69652344 -69.16015625 107.1796875 C-37.61881409 98.1204805 -8.22476864 99.00209143 23.32421875 107.203125 C24.65718864 107.53790877 25.99041073 107.8716962 27.32421875 108.203125 C22.77909105 79.73477632 11.74856994 38.08590865 -12.21875 19.19921875 C-20.89877703 13.53947344 -26.57379044 14.16634753 -34.67578125 20.203125 Z M-226.17578125 131.890625 C-229.67132547 139.60995183 -227.55637323 146.65278758 -224.84375 154.34375 C-223.60208072 157.38355573 -222.18167387 160.2862671 -220.67578125 163.203125 C-219.43183594 163.15671875 -218.18789062 163.1103125 -216.90625 163.0625 C-204.26560622 162.73088798 -194.34918889 163.27382564 -184.67578125 172.203125 C-184.01578125 172.203125 -183.35578125 172.203125 -182.67578125 172.203125 C-182.40894531 172.74066406 -182.14210937 173.27820313 -181.8671875 173.83203125 C-180.99131232 175.57516644 -180.10118798 177.3111603 -179.203125 179.04296875 C-178.67847656 180.06519531 -178.15382812 181.08742187 -177.61328125 182.140625 C-177.08605469 183.16027344 -176.55882812 184.17992187 -176.015625 185.23046875 C-172.11194467 193.89140382 -172.87966989 203.2776157 -176.1171875 212.01171875 C-176.78508906 214.63194796 -176.80628374 215.74146806 -175.67578125 218.203125 C-173.19916627 220.45162983 -173.19916627 220.45162983 -170.67578125 222.203125 C-170.52544434 221.6455249 -170.37510742 221.0879248 -170.22021484 220.51342773 C-161.66715517 189.0455381 -148.10927698 158.76945131 -122.22265625 137.65625 C-121.7121875 137.17671875 -121.20171875 136.6971875 -120.67578125 136.203125 C-120.67578125 135.543125 -120.67578125 134.883125 -120.67578125 134.203125 C-175.33921715 116.61327046 -175.33921715 116.61327046 -226.17578125 131.890625 Z M148.32421875 121.203125 C147.8653125 122.15574219 147.40640625 123.10835937 146.93359375 124.08984375 C146.31412901 125.35693072 145.69431894 126.6238489 145.07421875 127.890625 C144.62369141 128.82938477 144.62369141 128.82938477 144.1640625 129.78710938 C139.49474322 139.27476877 132.67593142 144.44672139 123.01171875 148.640625 C110.87014457 150.49272954 100.18290354 149.51220042 89.94921875 142.390625 C86.28839038 139.44539065 83.84842713 136.14720059 81.32421875 132.203125 C78.68421875 132.863125 76.04421875 133.523125 73.32421875 134.203125 C73.96359375 134.8425 74.60296875 135.481875 75.26171875 136.140625 C75.72191406 136.6046875 76.18210937 137.06875 76.65625 137.546875 C77.84678353 138.72904413 79.05456158 139.89395028 80.2734375 141.046875 C103.70101963 163.59119102 115.82090892 191.3726888 124.32421875 222.203125 C136.09998872 212.339006 146.96097444 201.38768586 156.32421875 189.203125 C157.14277344 188.17832031 157.96132813 187.15351563 158.8046875 186.09765625 C169.715408 172.36313049 183.09481469 154.71390071 181.32421875 136.203125 C179.30757776 130.57775802 176.39465238 127.66796685 171.0234375 125.10546875 C163.4066515 121.88075965 156.52664154 121.05922285 148.32421875 121.203125 Z M-179.14453125 283.48632812 C-179.64339844 283.98527588 -180.14226562 284.48422363 -180.65625 284.99829102 C-182.13652465 286.47642517 -183.62453274 287.94642381 -185.11328125 289.41601562 C-191.4164281 295.68171568 -197.17360213 302.21010066 -202.67578125 309.203125 C-203.17287598 309.8206665 -203.6699707 310.43820801 -204.18212891 311.07446289 C-215.30254426 324.8974916 -229.71177051 343.36096985 -227.67578125 362.203125 C-225.9475781 366.93294414 -223.93816316 369.53913631 -219.67578125 372.203125 C-189.68275804 385.24962581 -150.33144454 373.55759597 -120.67578125 364.203125 C-122.05264363 361.00659023 -123.53822022 359.24908316 -126.23828125 357.078125 C-147.7205472 338.77554463 -159.76745448 312.67291975 -167.67578125 286.203125 C-167.99933594 285.13320313 -168.32289063 284.06328125 -168.65625 282.9609375 C-169.33534938 280.71002593 -170.00914844 278.45775303 -170.67578125 276.203125 C-173.59879163 276.203125 -177.03247035 281.38507404 -179.14453125 283.48632812 Z M124.32421875 276.203125 C124.17388184 276.7607251 124.02354492 277.3183252 123.86865234 277.89282227 C115.31559267 309.3607119 101.75771448 339.63679869 75.87109375 360.75 C75.360625 361.22953125 74.85015625 361.7090625 74.32421875 362.203125 C74.32421875 362.863125 74.32421875 363.523125 74.32421875 364.203125 C88.85786433 368.56771826 103.42207811 372.31725872 118.32421875 375.203125 C119.0114502 375.33734863 119.69868164 375.47157227 120.40673828 375.60986328 C137.06452447 378.72089191 158.79222064 380.51449331 173.88671875 371.765625 C177.74568418 369.09957627 179.82885181 366.68922583 181.32421875 362.203125 C183.19632812 343.17001311 169.04579623 324.81752247 157.55078125 310.7734375 C154.85712303 307.54010332 152.09831101 304.36764506 149.32421875 301.203125 C148.60878906 300.37554687 147.89335937 299.54796875 147.15625 298.6953125 C142.40729079 293.29593298 137.39454294 288.17350256 132.32421875 283.078125 C131.65229492 282.40152832 130.98037109 281.72493164 130.28808594 281.02783203 C129.66063477 280.40247559 129.03318359 279.77711914 128.38671875 279.1328125 C127.82082031 278.56804199 127.25492187 278.00327148 126.671875 277.42138672 C125.50336229 276.09135891 125.50336229 276.09135891 124.32421875 276.203125 Z M-73.67578125 390.203125 C-69.09137375 418.02643347 -58.68240099 459.75581984 -35.24609375 478.10546875 C-29.80616732 481.79870954 -26.42306505 483.74726079 -19.67578125 483.203125 C-8.83956456 479.67604271 -3.2281017 470.53574873 2.32421875 461.203125 C1.9375 460.74164063 1.55078125 460.28015625 1.15234375 459.8046875 C-6.40835162 450.33510369 -8.98303181 441.19396486 -7.95068359 429.14990234 C-6.65751271 419.99204745 -1.78643565 412.06125766 5.5078125 406.5546875 C11.74197822 402.46507479 18.05121426 400.62773413 25.32421875 399.203125 C25.98421875 396.233125 26.64421875 393.263125 27.32421875 390.203125 C26.091875 390.54085938 24.85953125 390.87859375 23.58984375 391.2265625 C-8.4242408 399.8993394 -37.70510692 399.51377441 -69.67578125 391.203125 C-71.00875114 390.86834123 -72.34197323 390.5345538 -73.67578125 390.203125 Z " fill="#497EA8" transform="translate(249.67578125,6.796875)"/>
<path d="M0 0 C2.06689453 0.86938477 2.06689453 0.86938477 4.1328125 1.94140625 C4.92558594 2.35221436 5.71835938 2.76302246 6.53515625 3.1862793 C7.38980469 3.64043213 8.24445313 4.09458496 9.125 4.5625 C10.02863281 5.03921143 10.93226563 5.51592285 11.86328125 6.00708008 C23.03121558 11.97819477 33.91369332 18.46373444 44.73828125 25.03271484 C47.03808653 26.41982794 49.34383854 27.78274203 51.66796875 29.12744141 C52.86207632 29.83088979 54.05608951 30.53449842 55.25 31.23828125 C56.32765625 31.86387939 57.4053125 32.48947754 58.515625 33.1340332 C61.33969865 35.25514119 61.47566568 35.66493714 62 39 C62.09113992 40.92215205 62.12789478 42.8471734 62.12939453 44.77148438 C62.13254669 45.93369507 62.13569885 47.09590576 62.13894653 48.29333496 C62.13591019 50.17454041 62.13591019 50.17454041 62.1328125 52.09375 C62.13376923 53.39139282 62.13472595 54.68903564 62.13571167 56.02600098 C62.13718555 58.77646066 62.1350468 61.52688785 62.13037109 64.27734375 C62.12471901 67.76911815 62.12792579 71.26081491 62.13394356 74.75258636 C62.1384753 78.11631339 62.13527797 81.48002078 62.1328125 84.84375 C62.13483673 86.08169312 62.13686096 87.31963623 62.13894653 88.59509277 C62.12382986 94.28958828 62.03464553 99.97996026 61.73828125 105.66723633 C61.66951782 107.08568596 61.66951782 107.08568596 61.59936523 108.53279114 C60.83807474 111.66654422 59.639294 112.62670135 57.0546875 114.48046875 C55.35160593 115.42638391 53.62282694 116.32706795 51.875 117.1875 C50.02320093 118.19227246 48.17163988 119.19748371 46.3203125 120.203125 C45.40668945 120.67943359 44.49306641 121.15574219 43.55175781 121.64648438 C40.18738094 123.4310333 36.97851699 125.42170893 33.75 127.4375 C23.41700417 133.71451239 12.68777764 139.35572304 2 145 C1.33766357 145.40677979 0.67532715 145.81355957 -0.00708008 146.23266602 C-3.32182605 147.5089427 -5.89912959 146.46305215 -9.06689453 145.13061523 C-9.74864746 144.77684814 -10.43040039 144.42308105 -11.1328125 144.05859375 C-11.92558594 143.64778564 -12.71835938 143.23697754 -13.53515625 142.8137207 C-14.38980469 142.35956787 -15.24445313 141.90541504 -16.125 141.4375 C-17.02863281 140.96078857 -17.93226563 140.48407715 -18.86328125 139.99291992 C-30.03063733 134.02211441 -40.93150585 127.55361455 -51.73828125 120.95556641 C-54.03306114 119.57972906 -56.32387209 118.26204843 -58.66796875 116.97802734 C-59.26730225 116.63849533 -59.86663574 116.29896332 -60.48413086 115.94914246 C-62.15294678 115.00417515 -63.83396696 114.08085528 -65.515625 113.15893555 C-68 111 -68 111 -68.85107422 108.12817383 C-68.94011618 106.75410276 -68.98229501 105.37683925 -69 104 C-69.0243512 103.02024704 -69.04870239 102.04049408 -69.0737915 101.03105164 C-69.13383045 97.35327101 -69.13854836 93.67825707 -69.1328125 90 C-69.13348731 88.63671857 -69.1344588 87.27343727 -69.13571167 85.91015625 C-69.13718033 83.06248827 -69.13506095 80.2148518 -69.13037109 77.3671875 C-69.12467431 73.73264049 -69.12795778 70.09816735 -69.13394356 66.46362305 C-69.13757169 63.65136161 -69.13640026 60.83911745 -69.13381577 58.02685547 C-69.13283232 56.04003857 -69.1358483 54.05322098 -69.13894653 52.06640625 C-69.09769507 36.12462853 -69.09769507 36.12462853 -66.28857422 33.24658203 C-65.5513916 32.83778809 -64.81420898 32.42899414 -64.0546875 32.0078125 C-62.82226318 31.29915039 -62.82226318 31.29915039 -61.56494141 30.57617188 C-60.67726074 30.09728516 -59.78958008 29.61839844 -58.875 29.125 C-57.02587125 28.07582113 -55.17691403 27.02633988 -53.328125 25.9765625 C-52.41482422 25.46899414 -51.50152344 24.96142578 -50.56054688 24.43847656 C-47.77971239 22.87624575 -45.06004188 21.23492118 -42.34594727 19.56054688 C-32.8877726 13.73187462 -23.10147308 8.44917191 -13.29638672 3.23144531 C-11.40029136 2.21465762 -9.526853 1.15574031 -7.66015625 0.0859375 C-4.47473548 -1.21442516 -3.2729664 -0.87026318 0 0 Z " fill="#FAF2BB" transform="translate(230,183)"/>
<path d="M0 0 C9.63247858 6.55938219 16.43150698 15.1505472 19.3515625 26.546875 C21.53177598 38.12182659 19.75125401 48.54297133 13.6015625 58.671875 C12.78156757 59.86862435 11.94973689 61.05742942 11.1015625 62.234375 C10.5446875 63.08 9.9878125 63.925625 9.4140625 64.796875 C1.27790852 73.37282109 -8.72090009 78.20674231 -20.48046875 78.75610352 C-32.89726126 78.97102934 -42.16991754 75.52749792 -51.70703125 67.4140625 C-60.77347995 58.39609748 -64.07086989 48.38117241 -64.1484375 35.921875 C-64.179375 34.69694336 -64.179375 34.69694336 -64.2109375 33.44726562 C-64.26939998 24.2759645 -60.99376816 17.68387742 -55.8984375 10.234375 C-55.3415625 9.38875 -54.7846875 8.543125 -54.2109375 7.671875 C-39.82119068 -7.49569597 -17.92077949 -10.91670125 0 0 Z " fill="#4A7EA8" transform="translate(248.8984375,219.765625)"/>
<path d="M0 0 C2.67603906 0.75996275 4.87253327 1.75707373 7.3359375 3.046875 C9.65864064 4.0730007 11.99732196 5.05724135 14.3359375 6.046875 C13.90211411 17.62547171 12.90884351 29.06930282 11.38745117 40.55883789 C10.769015 45.37286964 10.19832556 49.95817797 10.5859375 54.80859375 C10.88629873 58.91576964 10.81976594 62.11517389 9.3359375 66.046875 C4.76654552 70.90623146 -1.25219992 74.06812741 -6.95947266 77.40087891 C-11.41651325 80.11340533 -15.55721809 83.22912865 -19.7265625 86.359375 C-20.51828857 86.9462207 -21.31001465 87.53306641 -22.12573242 88.13769531 C-27.74406098 92.31242968 -33.2713118 96.58295283 -38.6640625 101.046875 C-42.06861938 99.49934914 -44.89520356 97.5182387 -47.8515625 95.234375 C-49.17220703 94.23470703 -49.17220703 94.23470703 -50.51953125 93.21484375 C-53.08163064 90.62474327 -53.57280222 89.67193609 -53.6640625 86.046875 C-53.18303641 83.02703663 -52.41950805 80.11636124 -51.6015625 77.171875 C-51.37186768 76.32979492 -51.14217285 75.48771484 -50.90551758 74.62011719 C-43.94316046 49.86194718 -30.91732366 28.91832689 -13.6640625 10.046875 C-13.18646484 9.50708008 -12.70886719 8.96728516 -12.21679688 8.41113281 C-4.75144794 0.08360319 -4.75144794 0.08360319 0 0 Z " fill="#FCF3BB" transform="translate(132.6640625,140.953125)"/>
<path d="M0 0 C0.57363281 0.43828125 1.14726562 0.8765625 1.73828125 1.328125 C2.60646484 1.97394531 2.60646484 1.97394531 3.4921875 2.6328125 C27.02137667 23.0620437 46.1206112 54.1352926 50.73828125 85.328125 C50.59694535 88.99720504 49.95665133 90.10109231 47.375 92.78515625 C46.40175781 93.56246094 45.42851562 94.33976562 44.42578125 95.140625 C43.46027344 95.93082031 42.49476563 96.72101563 41.5 97.53515625 C38.73828125 99.328125 38.73828125 99.328125 34.73828125 99.328125 C32.57527203 97.83319204 30.61866313 96.32522591 28.61328125 94.640625 C23.10998035 90.16698817 17.50216689 85.89846539 11.73828125 81.765625 C10.98345459 81.22365479 10.22862793 80.68168457 9.45092773 80.12329102 C7.21557326 78.52180359 4.9775214 76.92417386 2.73828125 75.328125 C2.02913574 74.8223291 1.31999023 74.3165332 0.58935547 73.79541016 C-0.43714111 73.06330322 -0.43714111 73.06330322 -1.484375 72.31640625 C-2.13470703 71.85242432 -2.78503906 71.38844238 -3.45507812 70.91040039 C-4.67288617 70.04237812 -5.89159292 69.17561488 -7.11132812 68.31030273 C-11.15415962 65.43568413 -11.15415962 65.43568413 -12.26171875 64.328125 C-12.45525446 62.61300469 -12.58614746 60.89076135 -12.69140625 59.16796875 C-12.76311035 58.07532715 -12.83481445 56.98268555 -12.90869141 55.85693359 C-12.98394043 54.67180176 -13.05918945 53.48666992 -13.13671875 52.265625 C-13.83888745 41.87989897 -14.84923231 31.59351562 -16.29638672 21.28491211 C-17.07733313 15.56852513 -17.39153692 10.09913267 -17.26171875 4.328125 C-14.85054367 3.43443075 -12.43489815 2.56310734 -10.01171875 1.703125 C-9.32980469 1.44789063 -8.64789063 1.19265625 -7.9453125 0.9296875 C-2.85706225 -0.84873006 -2.85706225 -0.84873006 0 0 Z " fill="#FCF3BB" transform="translate(323.26171875,141.671875)"/>
<path d="M0 0 C3.40455688 1.54752586 6.23114106 3.5286363 9.1875 5.8125 C10.06792969 6.47894531 10.94835937 7.14539063 11.85546875 7.83203125 C14.41756814 10.42213173 14.90873972 11.37493891 15 15 C14.51897391 18.01983837 13.75544555 20.93051376 12.9375 23.875 C12.70780518 24.71708008 12.47811035 25.55916016 12.24145508 26.42675781 C4.61801222 53.53575138 -10.83857475 79.20821351 -32 98 C-32.61101562 98.5775 -33.22203125 99.155 -33.8515625 99.75 C-36 101 -36 101 -38.5859375 100.70703125 C-39.50632812 100.41183594 -40.42671875 100.11664063 -41.375 99.8125 C-42.74785156 99.38904297 -42.74785156 99.38904297 -44.1484375 98.95703125 C-45.08945312 98.64121094 -46.03046875 98.32539063 -47 98 C-48.10601562 97.63261719 -49.21203125 97.26523437 -50.3515625 96.88671875 C-51.22554688 96.59410156 -52.09953125 96.30148437 -53 96 C-52.57120176 86.78083774 -51.95942638 77.73777323 -50.46875 68.6171875 C-49.95786688 64.74418975 -50.01454321 60.9733314 -50.09375 57.0703125 C-50.19943459 38.14426669 -50.19943459 38.14426669 -46.33935547 32.62597656 C-42.01414229 28.57627424 -36.91762409 25.98667154 -31.63671875 23.38476562 C-27.28507438 21.09934647 -23.43210333 18.18248014 -19.5 15.25 C-18.75766113 14.71157471 -18.01532227 14.17314941 -17.25048828 13.6184082 C-11.30875528 9.30349908 -5.58952224 4.7646368 0 0 Z " fill="#FCF3BB" transform="translate(359,270)"/>
<path d="M0 0 C4.80068418 2.61471226 9.07517031 5.47571623 13.3125 8.9375 C18.83400061 13.35591185 24.45887032 17.60363799 30.1875 21.75 C30.8988208 22.26812256 31.6101416 22.78624512 32.34301758 23.32006836 C33.04837646 23.82803955 33.75373535 24.33601074 34.48046875 24.859375 C35.54974609 25.65504883 35.54974609 25.65504883 36.640625 26.46679688 C39.00319462 28.10901774 39.00319462 28.10901774 41.90625 29.17382812 C45.44136716 30.76532582 47.47093053 32.03091792 50 35 C52.39552881 41.98440418 52.28923212 49.6955963 52.625 57 C52.75433726 59.00942778 52.88841217 61.01855652 53.02734375 63.02734375 C53.34811103 67.81204873 53.61398087 72.59766016 53.85998535 77.38671875 C54.06640747 81.23945178 54.32206092 85.08833744 54.5859375 88.9375 C54.66634277 90.12214844 54.74674805 91.30679688 54.82958984 92.52734375 C54.8858252 93.34332031 54.94206055 94.15929687 55 95 C53.5 95.64583333 52 96.29166667 50.5 96.9375 C49.24703125 97.47697266 49.24703125 97.47697266 47.96875 98.02734375 C44.29575176 99.23073396 40.89511898 100.26386919 37 100 C33.98046875 98.1484375 33.98046875 98.1484375 31.1875 95.375 C30.428927 94.62827026 30.428927 94.62827026 29.6550293 93.86645508 C28.06771011 92.27469031 26.52861646 90.64811583 25 89 C24.51563477 88.48002441 24.03126953 87.96004883 23.53222656 87.42431641 C16.35656425 79.59476268 10.35683882 71.15747458 5 62 C4.61569824 61.34515625 4.23139648 60.6903125 3.83544922 60.015625 C-2.27957701 49.43609964 -6.61201341 38.7276459 -10 27 C-10.35191406 25.79214844 -10.70382813 24.58429688 -11.06640625 23.33984375 C-13.45964471 14.50739869 -13.45964471 14.50739869 -12 11 C-10.29296875 8.96484375 -10.29296875 8.96484375 -8.1875 6.9375 C-7.15689453 5.93009766 -7.15689453 5.93009766 -6.10546875 4.90234375 C-4.14645285 3.13232382 -2.13993593 1.54363918 0 0 Z " fill="#FCF3BB" transform="translate(92,270)"/>
<path d="M0 0 C0.98613281 0.26296875 1.97226562 0.5259375 2.98828125 0.796875 C5 2 5 2 6.14453125 4.609375 C6.36496094 5.64578125 6.58539063 6.6821875 6.8125 7.75 C7.16248047 9.28914063 7.16248047 9.28914063 7.51953125 10.859375 C7.99409741 13.96141725 8.08909866 16.86747856 8 20 C1.87355917 23.14581604 -4.35370324 25.92505756 -10.6875 28.625 C-16.83824644 31.25271122 -22.93791692 33.9267256 -28.92578125 36.91015625 C-29.86397705 37.37534668 -30.80217285 37.84053711 -31.76879883 38.31982422 C-33.54854212 39.21104813 -35.32102305 40.11697253 -37.0847168 41.03955078 C-42.16421459 43.57701869 -45.32386867 44.67289651 -51 43 C-53.74562441 41.89461397 -56.36370485 40.59286376 -59 39.25 C-68.08031945 34.77682086 -77.34601327 30.82436476 -86.6875 26.9375 C-87.39592041 26.64242554 -88.10434082 26.34735107 -88.83422852 26.04333496 C-92.88703349 24.35627205 -96.94238042 22.67545697 -101 21 C-101.02616204 16.80545531 -100.9850973 12.87416163 -100.1875 8.75 C-100.03667969 7.91984375 -99.88585937 7.0896875 -99.73046875 6.234375 C-98.88949383 3.66198113 -98.04266256 2.74121366 -96 1 C-94.19750977 0.23217773 -94.19750977 0.23217773 -92.19140625 -0.31640625 C-91.45043701 -0.52233398 -90.70946777 -0.72826172 -89.94604492 -0.94042969 C-89.1594751 -1.14571289 -88.37290527 -1.35099609 -87.5625 -1.5625 C-86.75208252 -1.77938477 -85.94166504 -1.99626953 -85.10668945 -2.21972656 C-56.6795848 -9.66176131 -28.08189434 -7.86332822 0 0 Z " fill="#FBF3BB" transform="translate(273,113)"/>
<path d="M0 0 C3.90713743 1.62401017 7.66145926 3.53161839 11.4375 5.4375 C21.36336254 10.3390601 31.38976126 14.80136212 41.64624023 18.96459961 C43.07432007 19.54479858 43.07432007 19.54479858 44.53125 20.13671875 C45.37236328 20.47405029 46.21347656 20.81138184 47.08007812 21.15893555 C49 22 49 22 50 23 C49.96151565 24.71107347 49.84308059 26.42057982 49.6875 28.125 C49.60886719 29.05570312 49.53023438 29.98640625 49.44921875 30.9453125 C48.91563609 34.57367459 48.44063075 37.60508742 47 41 C44.42897236 42.37206962 42.63234053 43.07340779 39.875 43.75 C39.16432373 43.94625977 38.45364746 44.14251953 37.72143555 44.34472656 C25.99158774 47.48026223 14.14616226 49.51354544 2 50 C1.00097656 50.04125 0.00195312 50.0825 -1.02734375 50.125 C-18.09510331 50.46936841 -34.60671661 47.57486978 -51 43 C-52.47919922 42.62101562 -52.47919922 42.62101562 -53.98828125 42.234375 C-56 41 -56 41 -57.14453125 38.171875 C-57.36496094 37.04265625 -57.58539063 35.9134375 -57.8125 34.75 C-58.16248047 33.07164062 -58.16248047 33.07164062 -58.51953125 31.359375 C-58.97449292 28.17834219 -59.03450845 25.2061998 -59 22 C-58.33806641 21.72438232 -57.67613281 21.44876465 -56.99414062 21.16479492 C-3.81072316 -1.03003974 -3.81072316 -1.03003974 0 0 Z " fill="#FCF3BB" transform="translate(231,356)"/>
<path d="M0 0 C3.79007714 1.89503857 7.08537464 4.09132785 10.5 6.5625 C11.10859863 6.99997559 11.71719727 7.43745117 12.34423828 7.88818359 C18.2904334 12.17777338 24.15774293 16.57015673 30 21 C28.84047781 24.47856656 27.96181393 25.03915291 25.0625 27.14453125 C24.24910156 27.73943359 23.43570312 28.33433594 22.59765625 28.94726562 C21.31181641 29.87055664 21.31181641 29.87055664 20 30.8125 C18.76056641 31.71838867 18.76056641 31.71838867 17.49609375 32.64257812 C1.87199778 44 1.87199778 44 0 44 C0 29.48 0 14.96 0 0 Z " fill="#F9F1BB" transform="translate(313,234)"/>
<path d="M0 0 C7.18500079 2.26540608 14.03757821 5.04515673 20.9375 8.0625 C21.97712891 8.50916016 23.01675781 8.95582031 24.08789062 9.41601562 C25.07853516 9.84720703 26.06917969 10.27839844 27.08984375 10.72265625 C27.98566162 11.11203369 28.88147949 11.50141113 29.80444336 11.90258789 C32 13 32 13 34 15 C27.53234294 19.65217438 20.65869846 23.47830065 13.6862793 27.30371094 C8.59857375 30.09787904 3.58933356 32.98403633 -1.34765625 36.0390625 C-3 37 -3 37 -4 37 C-4.21195076 28.84347962 -3.58540887 20.96311663 -2.5625 12.875 C-2.42779297 11.740625 -2.29308594 10.60625 -2.15429688 9.4375 C-1.13375235 1.13375235 -1.13375235 1.13375235 0 0 Z " fill="#F8F1BB" transform="translate(168,155)"/>
<path d="M0 0 C2.16425555 4.32851111 2.02038114 9.80274825 2.5625 14.5625 C2.70107422 15.71814453 2.83964844 16.87378906 2.98242188 18.06445312 C3.71558695 24.42456984 4.15713185 30.59858493 4 37 C-3.12116399 33.62421995 -9.88203598 29.77104559 -16.64990234 25.74707031 C-22.36161541 22.35601976 -28.13329229 19.11708444 -34 16 C-34 15.34 -34 14.68 -34 14 C-30.16880539 12.22451341 -26.33467198 10.45546214 -22.5 8.6875 C-21.42234375 8.18798828 -20.3446875 7.68847656 -19.234375 7.17382812 C-3.65149007 0 -3.65149007 0 0 0 Z " fill="#F8F1BB" transform="translate(285,155)"/>
<path d="M0 0 C0 14.52 0 29.04 0 44 C-3.79007714 42.10496143 -7.08537464 39.90867215 -10.5 37.4375 C-11.10859863 37.00002441 -11.71719727 36.56254883 -12.34423828 36.11181641 C-18.2904334 31.82222662 -24.15774293 27.42984327 -30 23 C-28.84047781 19.52143344 -27.96181393 18.96084709 -25.0625 16.85546875 C-24.24910156 16.26056641 -23.43570313 15.66566406 -22.59765625 15.05273438 C-21.74042969 14.43720703 -20.88320312 13.82167969 -20 13.1875 C-19.17371094 12.58357422 -18.34742187 11.97964844 -17.49609375 11.35742188 C-1.87199778 0 -1.87199778 0 0 0 Z " fill="#FAF2BB" transform="translate(140,234)"/>
<path d="M0 0 C6.6660302 3.12127061 12.94872426 6.71573712 19.22509766 10.54052734 C25.36274936 14.26300765 31.643516 17.66632964 38 21 C38 21.66 38 22.32 38 23 C34.54344659 24.58723917 31.08443467 26.16905168 27.625 27.75 C26.65949219 28.1934375 25.69398438 28.636875 24.69921875 29.09375 C7.37522978 37 7.37522978 37 4 37 C1.65373531 24.64890853 0.4039475 12.56416027 0 0 Z " fill="#F9F1BB" transform="translate(164,320)"/>
<path d="M0 0 C-0.51170828 12.47509487 -2.08812171 24.66901453 -4 37 C-11.95211472 34.91899994 -19.2007776 31.80810897 -26.625 28.3125 C-27.72457031 27.80138672 -28.82414062 27.29027344 -29.95703125 26.76367188 C-32.64088415 25.51509683 -35.32171532 24.26046333 -38 23 C-38 22.34 -38 21.68 -38 21 C-37.41210693 20.68361572 -36.82421387 20.36723145 -36.21850586 20.04125977 C-25.79436106 14.42106507 -15.39412592 8.80178803 -5.30639648 2.59204102 C-1.08804802 0 -1.08804802 0 0 0 Z " fill="#F9F1BB" transform="translate(289,320)"/>
<path d="M0 0 C6.79411765 5.82352941 6.79411765 5.82352941 7.60546875 10.0546875 C7.78071497 15.01165214 7.00915544 18.69116608 4.1875 22.875 C-0.23783811 26.96843776 -3.67214255 28.23836397 -9.75 28.16015625 C-14.0420991 27.56674103 -16.85677497 24.96254917 -19.625 21.8125 C-22.31885434 17.41726397 -22.4279347 12.87540693 -21.8125 7.875 C-17.35324422 -1.04351155 -9.21350307 -3.68540123 0 0 Z " fill="#AED6ED" transform="translate(47.8125,192.125)"/>
<path d="M0 0 C4.3511403 2.31411765 7.11775618 5.45995819 9 10 C9.52092045 15.29602457 9.26203624 18.95237776 6.32421875 23.45703125 C3.48199616 26.76876553 0.26370484 28.57528168 -4.01953125 29.37890625 C-9.17280898 29.68435866 -12.16635339 28.31087662 -16 25 C-19.93713353 20.64843137 -20.62990978 17.08535722 -20.390625 11.40234375 C-19.67600352 7.00742166 -17.42926076 4.30675269 -14.22265625 1.375 C-9.89095072 -1.30471941 -4.88662961 -0.79846889 0 0 Z " fill="#AED6ED" transform="translate(283,428)"/>
<path d="M0 0 C4.1402585 1.46126771 7.36288255 3.5425664 10.08203125 7.0625 C12.03998952 11.19504171 11.70423143 15.57716338 11 20 C9.22652978 23.81978202 7.74050477 25.48336877 4.3125 27.875 C0.06476306 29.31762764 -3.56130715 29.72387285 -8 29 C-13.11762818 26.34641502 -16.17705942 23.46882174 -18 18 C-18.55872023 12.18930962 -17.5814004 8.49343404 -14 4 C-9.50400187 0.01491075 -5.79621093 -0.94086791 0 0 Z " fill="#AED6ED" transform="translate(365,106)"/>
<path d="M0 0 C5.61 0 11.22 0 17 0 C17 7.26 17 14.52 17 22 C11.39 22 5.78 22 0 22 C0 14.74 0 7.48 0 0 Z " fill="#ACD4EC" transform="translate(218,245)"/>
</svg>
